<?xml version="1.0" encoding="UTF-8"?>
<svg width="500px" height="500px" viewBox="0 0 500 500" version="1.1" xmlns="http://www.w3.org/2000/svg" xmlns:xlink="http://www.w3.org/1999/xlink">
    <title>Group</title>
    <g id="Page-1" stroke="none" stroke-width="1" fill="none" fill-rule="evenodd">
        <g id="Artboard" transform="translate(-470.000000, -200.000000)">
            <g id="Group" transform="translate(470.000000, 200.000000)">
                <path d="M483.199171,167.999269 L483.142456,168.566659 C446.969119,176.813559 421.643507,210.643799 424.852644,248.439904 L424.958643,249.586433 L450,500 L50,500 L75.0413567,249.586433 C75.2907174,247.092826 75.4156302,244.58834 75.4156302,242.082297 C75.4156302,206.226241 50.3926254,176.21462 16.8568905,168.557711 L16.8001707,167.999269 L483.199171,167.999269 Z" id="Combined-Shape" fill="#1919AF"></path>
                <path d="M83.3333333,0 L83.3333333,0.833333333 C83.3333333,35.3511302 111.315536,63.3333333 145.833333,63.3333333 C180.005952,63.3333333 207.773036,35.907976 208.32496,1.86688511 L208.333333,0.833333333 L208.333333,0 L291.666667,0 L291.666667,0.833333333 C291.666667,35.3511302 319.64887,63.3333333 354.166667,63.3333333 C388.339286,63.3333333 416.106369,35.907976 416.658293,1.86688511 L416.666667,0.833333333 L416.666667,0 L500,0 L483.199,168 L16.8,168 L0,0 L83.3333333,0 Z" id="Combined-Shape" fill="#FFAF32"></path>
            </g>
        </g>
    </g>
</svg>