<svg fill="#000000" xmlns="http://www.w3.org/2000/svg" viewBox="0 0 50 50" width="50px" height="50px"><path d="M31.5 40A1.5 1.5 0 1 0 31.5 43 1.5 1.5 0 1 0 31.5 40zM20.5 40A1.5 1.5 0 1 0 20.5 43 1.5 1.5 0 1 0 20.5 40z"/><path fill="none" stroke="#000000" stroke-miterlimit="10" stroke-width="2" d="M19.095 19C11.706 21.443 6 28.456 6 41c3-4 7-8 10-10-1.667 2.667-2.667 5.333-3 8 0 0 6-5 13-5 6 0 7 1 11 1s5-3 5-5c0-3-2.862-6-2.862-6M44 36.5c0-8.302-5.469-15.327-13-17.669"/><path fill="none" stroke="#000000" stroke-linecap="round" stroke-miterlimit="10" stroke-width="2" d="M7.167 39c.289 2.14.955 4.157 1.91 6M41.92 45c1.321-2.547 2.08-5.433 2.08-8.5 0-8.111-5.22-15.004-12.485-17.5"/><path fill="none" stroke="#000000" stroke-linecap="round" stroke-linejoin="round" stroke-miterlimit="10" stroke-width="2" d="M19,15.5C19,9,24.5,4,24.5,4s-2,5,1,5c3.59,0,6.5,2.91,6.5,6.5S29.09,22,25.5,22S19,19.09,19,15.5z"/><path fill="none" stroke="#000000" stroke-linecap="round" stroke-miterlimit="10" stroke-width="2" d="M19.25,13h-4.5C14.336,13,14,12.664,14,12.25v-4.5C14,7.336,14.336,7,14.75,7h4.5C19.664,7,20,7.336,20,7.75V10"/><path fill="none" stroke="#000000" stroke-linecap="round" stroke-linejoin="round" stroke-miterlimit="10" stroke-width="2" d="M28.5 21.5L34 27M31.941 25.971L29.941 27.971M30 23L28 25"/></svg>