<svg id="Layer_1" data-name="Layer 1" xmlns="http://www.w3.org/2000/svg" viewBox="0 0 652.01 107.26"><g id="HninqX.tif"><path d="M347.22,493.31h.92s0,.12.06.12a3.9,3.9,0,0,1,2,.75,3.85,3.85,0,0,1,1.78,3.33q0,14,0,28a5,5,0,0,1-.13,1.33,3.36,3.36,0,0,1-.63,1.35,6.78,6.78,0,0,1-1.74,1.5,21.92,21.92,0,0,0-2.4,1.62c-.56.45-1.17.79-1.73,1.23s-1.18.74-1.75,1.15c-.76.56-1.54,1.08-2.34,1.58-.45.29-.85.66-1.29,1a15.83,15.83,0,0,1-1.33.86,15.22,15.22,0,0,0-1.32.89c-.77.55-1.61,1-2.34,1.58-1.09.87-2.29,1.57-3.41,2.38s-2.43,1.67-3.65,2.49c-.92.62-1.86,1.22-2.76,1.86s-1.59,1-2.34,1.58c-1.12.85-2.33,1.58-3.47,2.39-.79.56-1.64,1-2.39,1.63-.56.44-1.18.79-1.73,1.22s-1.17.77-1.75,1.16c-1,.63-1.92,1.22-2.81,1.91-.56.44-1.16.82-1.74,1.22l-1.73,1.17c-.78.53-1.61,1-2.34,1.58-1.09.87-2.31,1.54-3.41,2.39s-2.27,1.47-3.35,2.3c-.44.34-1,.63-1.44,1s-1,.72-1.49,1c-1.57,1-3.07,2.09-4.61,3.13a5.56,5.56,0,0,1-2.33.87,2.58,2.58,0,0,1-1-.12,5.1,5.1,0,0,1-1.52-.61c-.84-.53-1.66-1.08-2.46-1.67-1-.7-2-1.33-2.94-2l-3.77-2.57c-.91-.64-1.84-1.24-2.76-1.85-.77-.51-1.57-1-2.28-1.54-.55-.45-1.15-.82-1.74-1.22s-1.14-.8-1.73-1.17c-.82-.51-1.64-1-2.4-1.62-1.25-1-2.61-1.76-3.9-2.67-.78-.56-1.63-1-2.39-1.63-.55-.45-1.17-.79-1.73-1.23s-1.18-.74-1.74-1.15c-.76-.56-1.59-1-2.34-1.59-1.14-.86-2.36-1.6-3.53-2.42-.93-.65-1.92-1.23-2.82-1.92-1.09-.84-2.29-1.54-3.41-2.35-.78-.57-1.64-1-2.39-1.62-.56-.45-1.17-.79-1.73-1.22s-1.17-.78-1.75-1.16c-.94-.63-1.92-1.22-2.82-1.91-1.13-.87-2.36-1.61-3.53-2.43-.77-.54-1.59-1-2.33-1.59-1.09-.86-2.32-1.51-3.4-2.37a3.79,3.79,0,0,1-1.71-2.56s-.08,0-.13-.05v-30s.12,0,.13-.06a3.22,3.22,0,0,1,.64-1.49,4,4,0,0,1,2.88-1.69c.07,0,.13-.09.19-.14h.93c.06.05.12.13.2.14a5.4,5.4,0,0,0,.58.1,3,3,0,0,1,1.26.65c1.11.73,2.2,1.48,3.31,2.23.78.52,1.59,1,2.33,1.58,1.09.86,2.3,1.54,3.41,2.36.78.57,1.65,1,2.4,1.61,1.24,1,2.63,1.75,3.89,2.69.77.57,1.66,1,2.4,1.6,1.08.88,2.3,1.54,3.4,2.39s2.43,1.67,3.65,2.49l2.77,1.85a27.28,27.28,0,0,1,2.33,1.59c.56.45,1.17.79,1.74,1.22s1.16.77,1.74,1.16c.8.54,1.64,1,2.39,1.63,1.1.85,2.3,1.54,3.42,2.36.93.68,1.95,1.24,2.87,1.94.56.43,1.15.82,1.74,1.21l1.73,1.18c.78.52,1.6,1,2.34,1.57,1.15.87,2.39,1.57,3.53,2.44s2.19,1.35,3.16,2.22a6.76,6.76,0,0,0,1.81.81,4.78,4.78,0,0,0,3.37-.76,5.09,5.09,0,0,1,.58-.46c1.13-.75,2.28-1.46,3.36-2.29.45-.34,1-.63,1.44-1s1-.72,1.5-1c1.25-.81,2.48-1.67,3.71-2.52.91-.63,1.85-1.24,2.77-1.85s1.59-1,2.33-1.59c1.1-.85,2.3-1.54,3.42-2.35.78-.56,1.64-1,2.39-1.62.56-.45,1.15-.82,1.74-1.22s1.14-.8,1.73-1.17c.82-.51,1.63-1,2.4-1.62,1.25-1,2.61-1.76,3.9-2.67.78-.55,1.63-1,2.39-1.63.55-.45,1.17-.79,1.73-1.23s1.18-.74,1.74-1.15c.76-.56,1.55-1.07,2.34-1.58.46-.29.86-.66,1.3-1a14.36,14.36,0,0,1,1.33-.86c.47-.26.87-.61,1.32-.89a28.11,28.11,0,0,0,2.4-1.63c1.09-.85,2.31-1.51,3.4-2.36.9-.7,1.9-1.26,2.81-2s1.86-1.22,2.76-1.87a3.51,3.51,0,0,1,1.88-.66S347.2,493.35,347.22,493.31Z" transform="translate(-223.96 -493.31)"/><path d="M224,554.77s.13,0,.13-.06a2.94,2.94,0,0,1,1-1.89,5.71,5.71,0,0,1,1.27-1,4.45,4.45,0,0,1,2.67-.39,3.94,3.94,0,0,1,1.93.87c1.1.86,2.18,1.76,3.33,2.54,1.31.89,2.54,1.88,3.83,2.79s2.56,2,3.86,2.92,2.77,2,4.12,3c1,.8,2.14,1.52,3.2,2.29.71.52,1.39,1.09,2.09,1.62s1.21.92,1.82,1.36,1,.71,1.54,1.09c1,.76,2,1.5,3,2.24a4.89,4.89,0,0,1,1.36,1.5,2.15,2.15,0,0,1,.32.94c0,.54.48,1.06.06,1.61a3.34,3.34,0,0,1-.75,2,3.66,3.66,0,0,1-.85.94c-.84.59-1.66,1.2-2.46,1.85s-1.35,1.05-2,1.56l-1.59,1.16c-1,.74-2,1.54-3,2.24-.79.54-1.5,1.19-2.26,1.78l-2.11,1.58-1.52,1.13c-1,.77-2,1.58-3,2.29-.57.39-1.07.87-1.62,1.29s-1.4,1.06-2.11,1.59l-1.52,1.13c-1,.77-2,1.57-3,2.3-.42.28-.79.66-1.24.91a3.75,3.75,0,0,1-2.22.56,4.33,4.33,0,0,1-3.37-1.87,3.94,3.94,0,0,1-.63-1.44s-.08,0-.13-.05Z" transform="translate(-223.96 -493.31)"/><path d="M352,576q0,10.24,0,20.5a3.61,3.61,0,0,1-1.13,2.68,4.22,4.22,0,0,1-1.4,1.08,4.67,4.67,0,0,1-1.09.31,4.74,4.74,0,0,1-3.56-1.07c-.88-.72-1.8-1.4-2.75-2-.76-.51-1.42-1.15-2.16-1.66-.94-.66-1.8-1.41-2.77-2-.47-.3-.9-.68-1.34-1-1-.74-1.93-1.49-2.94-2.18-.72-.5-1.38-1.1-2.1-1.62-.95-.68-1.84-1.43-2.82-2.08-.73-.49-1.38-1.1-2.1-1.61-.95-.68-1.85-1.42-2.82-2.08-.73-.49-1.39-1.1-2.1-1.61-.95-.69-1.89-1.38-2.82-2.09a4,4,0,0,1-1.61-2.78c0-.28-.21-.57-.13-.86.16-.57.26-1.16.46-1.72a1.61,1.61,0,0,1,.35-.55,9.15,9.15,0,0,1,1.25-1.24c.78-.54,1.52-1.14,2.29-1.69.94-.66,1.81-1.4,2.77-2,.49-.32.93-.71,1.4-1.07,1-.74,1.93-1.49,2.94-2.18.72-.5,1.38-1.1,2.1-1.62.94-.68,1.85-1.42,2.82-2.07.73-.5,1.38-1.1,2.1-1.62.95-.68,1.85-1.42,2.82-2.08.75-.51,1.41-1.14,2.16-1.66.93-.66,1.81-1.39,2.76-2,.73-.49,1.39-1.09,2.1-1.61a4.46,4.46,0,0,1,1.74-1,5.06,5.06,0,0,1,1.58-.25,6.71,6.71,0,0,1,1.38.37,3.88,3.88,0,0,1,2.12,1.84,3.61,3.61,0,0,1,.51,1.78Q352,565.69,352,576Z" transform="translate(-223.96 -493.31)"/></g><path d="M415.59,506.37h21.17l22.35,54.53h.95l22.36-54.53h21.16v81.17H486.94V534.71h-.68l-21,52.43H453.92l-21-52.63h-.67v53H415.59Z" transform="translate(-223.96 -493.31)"/><path d="M544.92,588.73a32.27,32.27,0,0,1-16.15-3.83A25.85,25.85,0,0,1,518.36,574a39.56,39.56,0,0,1,0-33.15,26.88,26.88,0,0,1,10.29-11.06,29.84,29.84,0,0,1,15.59-4,32.28,32.28,0,0,1,11.24,1.92,25.34,25.34,0,0,1,9.12,5.77,26.23,26.23,0,0,1,6.08,9.65,38.59,38.59,0,0,1,2.18,13.57v4.64H521.45V551H557a12.89,12.89,0,0,0-1.59-6.46,11.55,11.55,0,0,0-4.38-4.42,12.77,12.77,0,0,0-6.48-1.61,13.07,13.07,0,0,0-6.8,1.76,12.73,12.73,0,0,0-4.61,4.72,13.49,13.49,0,0,0-1.71,6.56v10a16.88,16.88,0,0,0,1.69,7.81,12,12,0,0,0,4.77,5.07,14.42,14.42,0,0,0,7.33,1.78,16,16,0,0,0,5.16-.79,10.66,10.66,0,0,0,4-2.38,10.28,10.28,0,0,0,2.54-3.88l15.61,1a21.32,21.32,0,0,1-4.85,9.81,24.44,24.44,0,0,1-9.44,6.5A35.31,35.31,0,0,1,544.92,588.73Z" transform="translate(-223.96 -493.31)"/><path d="M583.14,587.54V526.66h16.37v10.62h.64a15.77,15.77,0,0,1,5.58-8.58,14.78,14.78,0,0,1,9-2.91,24.24,24.24,0,0,1,2.73.16,19.21,19.21,0,0,1,2.58.43v15a23.89,23.89,0,0,0-3.29-.63,30.45,30.45,0,0,0-3.84-.28,13.51,13.51,0,0,0-6.64,1.61,11.88,11.88,0,0,0-4.6,4.46A12.7,12.7,0,0,0,600,553.1v34.44Z" transform="translate(-223.96 -493.31)"/><path d="M635.67,518.81a9.17,9.17,0,0,1-6.46-2.51,8.09,8.09,0,0,1,0-12,9.53,9.53,0,0,1,12.91,0,8.13,8.13,0,0,1,0,12A9.13,9.13,0,0,1,635.67,518.81Zm-8.52,68.73V526.66H644v60.88Z" transform="translate(-223.96 -493.31)"/><path d="M678.88,588.53a22.8,22.8,0,0,1-12.54-3.59,24.42,24.42,0,0,1-8.88-10.58q-3.27-7-3.27-17.18,0-10.47,3.37-17.42a24.26,24.26,0,0,1,9-10.42,22.88,22.88,0,0,1,12.3-3.47,19,19,0,0,1,8.55,1.72,17,17,0,0,1,5.54,4.28,22.7,22.7,0,0,1,3.24,5h.51V506.37h16.84v81.17H696.88v-9.75h-.71a22.25,22.25,0,0,1-3.35,5,16.91,16.91,0,0,1-5.59,4.1A19.31,19.31,0,0,1,678.88,588.53Zm5.35-13.44a10.76,10.76,0,0,0,6.92-2.24,14.1,14.1,0,0,0,4.36-6.28,30.14,30.14,0,0,0,0-18.9,13.58,13.58,0,0,0-4.36-6.19,11.1,11.1,0,0,0-6.94-2.18,11,11,0,0,0-7,2.26,13.91,13.91,0,0,0-4.32,6.26,26.9,26.9,0,0,0-1.47,9.28,27.21,27.21,0,0,0,1.49,9.37,14.06,14.06,0,0,0,4.32,6.34A10.8,10.8,0,0,0,684.23,575.09Z" transform="translate(-223.96 -493.31)"/><path d="M735,518.81a9.15,9.15,0,0,1-6.46-2.51,8.07,8.07,0,0,1,0-12,9.51,9.51,0,0,1,12.9,0,8.13,8.13,0,0,1,0,12A9.1,9.1,0,0,1,735,518.81Zm-8.52,68.73V526.66h16.88v60.88Z" transform="translate(-223.96 -493.31)"/><path d="M773.05,588.69a25.17,25.17,0,0,1-10.38-2,16.38,16.38,0,0,1-7.19-6.07A20.45,20.45,0,0,1,754.7,562a15.13,15.13,0,0,1,5.08-5.54,24.69,24.69,0,0,1,7.31-3.18,55.33,55.33,0,0,1,8.62-1.5q5.31-.56,8.56-1a12,12,0,0,0,4.72-1.49,3.32,3.32,0,0,0,1.46-2.93v-.24a7.32,7.32,0,0,0-2.36-5.83,9.82,9.82,0,0,0-6.67-2.06,11.89,11.89,0,0,0-7.26,2,9.38,9.38,0,0,0-3.56,5L755,543.94a21.28,21.28,0,0,1,4.68-9.61,22.58,22.58,0,0,1,9-6.26,34.48,34.48,0,0,1,12.83-2.2,38.88,38.88,0,0,1,9.73,1.19,25.74,25.74,0,0,1,8.28,3.68,18.08,18.08,0,0,1,5.73,6.4,19.49,19.49,0,0,1,2.1,9.34v41.06h-16V579.1h-.48a17.11,17.11,0,0,1-3.92,5,17.8,17.8,0,0,1-5.91,3.37A23.93,23.93,0,0,1,773.05,588.69ZM777.89,577a14.06,14.06,0,0,0,6.58-1.49,11.57,11.57,0,0,0,4.48-4,10.46,10.46,0,0,0,1.62-5.75v-6.46a8.92,8.92,0,0,1-2.16.93,29.44,29.44,0,0,1-3.07.75c-1.14.23-2.27.43-3.41.6l-3.09.45a21,21,0,0,0-5.19,1.39A8.45,8.45,0,0,0,770.2,566a6.36,6.36,0,0,0-1.23,4,6,6,0,0,0,2.52,5.25A10.74,10.74,0,0,0,777.89,577Z" transform="translate(-223.96 -493.31)"/><path d="M836.74,552.34v35.2H819.85V526.66h16.09V537.4h.72a17,17,0,0,1,6.78-8.42A20.54,20.54,0,0,1,855,525.87,21.42,21.42,0,0,1,866,528.64a18.9,18.9,0,0,1,7.33,7.91A26.69,26.69,0,0,1,876,548.78v38.76H859.09V551.79q0-5.6-2.85-8.74a10.29,10.29,0,0,0-8-3.15,12.06,12.06,0,0,0-6,1.46,10.17,10.17,0,0,0-4,4.26A14.81,14.81,0,0,0,836.74,552.34Z" transform="translate(-223.96 -493.31)"/></svg>